<svg xmlns="http://www.w3.org/2000/svg" xmlns:xlink="http://www.w3.org/1999/xlink">
<style type="text/css">
/* <![CDATA[ */
text {
  font-size: 12;
  font-family: Arial, sans-serif;
  font-style: normal;
}

rect {
  fill: black;
}

line {
  stroke-width: 1;
  stroke: black;
}

.barchart {
  font-size: 12;
  font-family: Arial, sans-serif;
  font-style: normal;
}

.barchart rect {
  fill: red;
  opacity: 0.5;
}
/* ]]> */
</style>
<g class="barchart" transform="translate(50 10)"><g id="title" transform="translate(0 0)"><text x="270" y="33" font-size="17">Storskog the best!</text></g><g id="y-axis" transform="translate(0 50)"><text x="0" y="61" font-size="12" transform="rotate(-90 0 61)">Bordercrossings</text><text x="53.76" y="116" font-size="12">0</text><line x1="70" y2="110" y1="110" x2="90" /><text x="28.799999999999997" y="105.68885333799939" font-size="12">30000</text><line x1="70" y2="99.68885333799939" y1="99.68885333799939" x2="90" /><text x="28.799999999999997" y="95.37770667599878" font-size="12">60000</text><line x1="70" y2="89.37770667599878" y1="89.37770667599878" x2="90" /><text x="28.799999999999997" y="85.06656001399816" font-size="12">90000</text><line x1="70" y2="79.06656001399816" y1="79.06656001399816" x2="90" /><text x="22.560000000000002" y="74.75541335199756" font-size="12">120000</text><line x1="70" y2="68.75541335199756" y1="68.75541335199756" x2="90" /><text x="22.560000000000002" y="64.44426668999694" font-size="12">150000</text><line x1="70" y2="58.44426668999694" y1="58.44426668999694" x2="90" /><text x="22.560000000000002" y="54.13312002799633" font-size="12">180000</text><line x1="70" y2="48.13312002799633" y1="48.13312002799633" x2="90" /><text x="22.560000000000002" y="43.82197336599572" font-size="12">210000</text><line x1="70" y2="37.82197336599572" y1="37.82197336599572" x2="90" /><text x="22.560000000000002" y="33.51082670399511" font-size="12">240000</text><line x1="70" y2="27.510826703995107" y1="27.510826703995107" x2="90" /><text x="22.560000000000002" y="23.199680041994483" font-size="12">270000</text><line x1="70" y2="17.199680041994483" y1="17.199680041994483" x2="90" /></g><g id="x-axis" transform="translate(100 160)"><text x="284" y="40" font-size="12">Years</text><text x="12" y="17" font-size="12">2006</text><text x="67" y="17" font-size="12">2007</text><text x="122" y="17" font-size="12">2008</text><text x="177" y="17" font-size="12">2009</text><text x="232" y="17" font-size="12">2010</text><text x="287" y="17" font-size="12">2011</text><text x="342" y="17" font-size="12">2012</text><text x="397" y="17" font-size="12">2013</text><text x="452" y="17" font-size="12">2014</text><text x="507" y="17" font-size="12">2015</text><text x="562" y="17" font-size="12">2016</text></g><g class="some-bar-class" id="bars" transform="translate(100 50)"><rect x="0" width="53" height="37" y="73" /><rect x="55" width="53" height="37" y="73" /><rect x="110" width="53" height="37" y="73" /><rect x="165" width="53" height="37" y="73" /><rect x="220" width="53" height="36" y="74" /><rect x="275" width="53" height="38" y="72" /><rect x="330" width="53" height="48" y="62" /><rect x="385" width="53" height="67" y="43" /><rect x="440" width="53" height="87" y="23" /><rect x="495" width="53" height="110" y="0" /><rect x="550" width="53" height="56" y="54" /></g></g><g class="barchart" transform="translate(50 210)"><g id="title" transform="translate(0 0)"><text x="270" y="33" font-size="17">Storskog the best!</text></g><g id="y-axis" transform="translate(0 50)"><text x="0" y="61" font-size="12" transform="rotate(-90 0 61)">Bordercrossings</text><text x="53.76" y="116" font-size="12">0</text><line x1="70" y2="110" y1="110" x2="90" /><text x="28.799999999999997" y="105.68885333799939" font-size="12">30000</text><line x1="70" y2="99.68885333799939" y1="99.68885333799939" x2="90" /><text x="28.799999999999997" y="95.37770667599878" font-size="12">60000</text><line x1="70" y2="89.37770667599878" y1="89.37770667599878" x2="90" /><text x="28.799999999999997" y="85.06656001399816" font-size="12">90000</text><line x1="70" y2="79.06656001399816" y1="79.06656001399816" x2="90" /><text x="22.560000000000002" y="74.75541335199756" font-size="12">120000</text><line x1="70" y2="68.75541335199756" y1="68.75541335199756" x2="90" /><text x="22.560000000000002" y="64.44426668999694" font-size="12">150000</text><line x1="70" y2="58.44426668999694" y1="58.44426668999694" x2="90" /><text x="22.560000000000002" y="54.13312002799633" font-size="12">180000</text><line x1="70" y2="48.13312002799633" y1="48.13312002799633" x2="90" /><text x="22.560000000000002" y="43.82197336599572" font-size="12">210000</text><line x1="70" y2="37.82197336599572" y1="37.82197336599572" x2="90" /><text x="22.560000000000002" y="33.51082670399511" font-size="12">240000</text><line x1="70" y2="27.510826703995107" y1="27.510826703995107" x2="90" /><text x="22.560000000000002" y="23.199680041994483" font-size="12">270000</text><line x1="70" y2="17.199680041994483" y1="17.199680041994483" x2="90" /></g><g id="x-axis" transform="translate(100 160)"><text x="284" y="40" font-size="12">Years</text><text x="12" y="17" font-size="12">2006</text><text x="67" y="17" font-size="12">2007</text><text x="122" y="17" font-size="12">2008</text><text x="177" y="17" font-size="12">2009</text><text x="232" y="17" font-size="12">2010</text><text x="287" y="17" font-size="12">2011</text><text x="342" y="17" font-size="12">2012</text><text x="397" y="17" font-size="12">2013</text><text x="452" y="17" font-size="12">2014</text><text x="507" y="17" font-size="12">2015</text><text x="562" y="17" font-size="12">2016</text></g><g class="some-bar-class" id="bars" transform="translate(100 50)"><rect x="0" width="53" height="37" y="73" /><rect x="55" width="53" height="37" y="73" /><rect x="110" width="53" height="37" y="73" /><rect x="165" width="53" height="37" y="73" /><rect x="220" width="53" height="36" y="74" /><rect x="275" width="53" height="38" y="72" /><rect x="330" width="53" height="48" y="62" /><rect x="385" width="53" height="67" y="43" /><rect x="440" width="53" height="87" y="23" /><rect x="495" width="53" height="110" y="0" /><rect x="550" width="53" height="56" y="54" /></g></g></svg>