<svg xmlns="http://www.w3.org/2000/svg" xmlns:xlink="http://www.w3.org/1999/xlink">
<style type="text/css">
/* <![CDATA[ */
text {
  font-size: 12;
  font-family: Arial, sans-serif;
  font-style: normal;
}

rect {
  fill: black;
}

.barchart {
  font-size: 12;
  font-family: Arial, sans-serif;
  font-style: normal;
}

.barchart rect {
  fill: red;
  opacity: 0.5;
}
/* ]]> */
</style>
<g class="barchart" transform="translate(100 100)"><g id="title" transform="translate(0 0)"><text x="196" y="66" font-size="33">Storskog the best!</text></g><g id="y-axis" transform="translate(0 100)"><text x="0" y="156" transform="rotate(-90 0 156)">Bordercrossings</text></g><g id="x-axis" transform="translate(30 370)"><text x="14" y="21" font-size="13">2006</text><text x="75" y="21" font-size="13">2007</text><text x="136" y="21" font-size="13">2008</text><text x="197" y="21" font-size="13">2009</text><text x="258" y="21" font-size="13">2010</text><text x="319" y="21" font-size="13">2011</text><text x="380" y="21" font-size="13">2012</text><text x="441" y="21" font-size="13">2013</text><text x="502" y="21" font-size="13">2014</text><text x="563" y="21" font-size="13">2015</text><text x="624" y="21" font-size="13">2016</text></g><g class="some-bar-class" id="bars" transform="translate(30 100)"><rect x="0" width="59" height="92" y="178" /><rect x="61" width="59" height="91" y="179" /><rect x="122" width="59" height="90" y="180" /><rect x="183" width="59" height="92" y="178" /><rect x="244" width="59" height="88" y="182" /><rect x="305" width="59" height="92" y="178" /><rect x="366" width="59" height="119" y="151" /><rect x="427" width="59" height="165" y="105" /><rect x="488" width="59" height="213" y="57" /><rect x="549" width="59" height="270" y="0" /><rect x="610" width="59" height="136" y="134" /></g></g></svg>